/* XPM */
static char *wall1[] = {
/* columns rows colors chars-per-pixel */
"128 128 66 1 ",
"  c #040404",
". c #080706",
"X c #090807",
"o c #080708",
"O c #070808",
"+ c #0D0C0A",
"@ c #100F0D",
"# c #12110E",
"$ c #151411",
"% c #191613",
"& c #1C1A16",
"* c #1E1C19",
"= c #201C17",
"- c #211E1A",
"; c #25221D",
": c #29251F",
"> c #2D281F",
", c #262420",
"< c #2A2621",
"1 c #2D2A24",
"2 c #2E2B28",
"3 c #322D26",
"4 c #332E29",
"5 c #353027",
"6 c #36312A",
"7 c #3A352D",
"8 c #3E382F",
"9 c #373432",
"0 c #3B3631",
"q c #3E3931",
"w c #413A2F",
"e c #423D33",
"r c #443E38",
"t c #483F38",
"y c #464136",
"u c #494237",
"i c #464139",
"p c #4B453A",
"a c #4E493D",
"s c #50473E",
"d c #514B3E",
"f c #4C4741",
"g c #4E4A41",
"h c #534D42",
"j c #584F42",
"k c #565144",
"l c #5A5345",
"z c #57534A",
"x c #5C5549",
"c c #5E584C",
"v c #5E5A51",
"b c #605847",
"n c #605649",
"m c #625B4C",
"M c #645E51",
"N c #6A614E",
"B c #676153",
"V c #6A6354",
"C c #6E6857",
"Z c #6D6658",
"A c #6F685B",
"S c #746C5C",
"D c #7C735F",
"F c #7A7262",
"G c #817966",
"H c #898170",
/* pixels */
"4<<48>;44-%4q<,3<--&;*11*<4<1;-&55a7,eagg5571,,67764777717eq1qa525<7y5::211:2:1qst5431716<242-&&*<706qe91,;1<11555,,53786;682ye6",
"66566:<64&$<741--<-&---,<<4<41,;15y1<8pgky5741,6ye78aap8-6ye96aq3717y7::742,1138ps61<<614<<<41;&*<7738q55<-11<27e65277e84-5766ye",
"68616;:;<1%-215,,,<,<14<<44<55:<15y:1e7epi6q86yeq87pkii877q742qq8qy27;&17351,7q3365<,<q,,11-47>1447587521:-11<7k81<ye7658-351<87",
";4ie6>;%49&,1;,181<467e42q1-<:=-11y15y:555797aa8qe7ey28aa0139q026ya8q**,23<<446:&---<361;1<1e61eu7yype;-**&;1e57,158e:5ep<,8<<1:",
"*1q5;69,q4%14,<7e6etete67612<27<:571:y5115qq9753>>65317epe271<;178eq8;*;,661:;,;%%:<<61,>13ettsupiyp781-;<1-1858<&81,56iy$,7,&&*",
";:*-&-$@-%+@--,<-&:;;:-;;=;;#+%&@%%OO16-&:1-#O+$XO#$@#=:57:@+XX$:33-%*X #--&&$+++.+$$&-$$-<;&;<<;:13-;3&@%*%##:i:&:1-;<5*O*;-*$$",
"<>;&1:%&%-,%&<1&$$#@+o@&;;&&&---::;17:#&*&$$%**%$&$$#$$$+$$#$$%$$#+1772-$-,-<<;---;-=%-133<,-@@+X#++#+@#@+OO%#+#++O#+O+$+%$$*&*,",
"q,4udlseeteeiapffhjftqtieeqygajjdddBv5+-;-*-55851:11;>;=&&%-13;*&%:aacmjhsiptpa6644estethstht--:-33:;-=:;**1pzzuy5888yyycveqip9r",
"r64uqrp5q28q006qft6rpeeq6ew40wwti88k1#+&%*&%*:9i8:;;;1:=*&*;33--&-;haukah68it41,<1*<iks63pu8:%1-><;yy5;;:*<78kMzlygkakdcBaiy8eee",
"2i48u7eey1e8<7i924-2ip64ee944te9ag8:$#O:-%%%*;182:;&;13&%;55;;3:&-#7l67q6-ea64<-,164ehje7ee9<&;;33*7y1,13*;,<25e378253>762y73<22",
"4q;1w87y77517ep6<9q6tat866466w5<8a8&-&O11%-:87<*&;;=:11&=362;585>&+$uyake49it:-6<146ei86:159<&&&5e8511<55--57556;:5112375377:171",
"7:%48uryqe02exq5q660rt02466www748875y1+&111667;*==-75;2&;7;25779-%+%5aczjspe8179q4119e641::6:=<1585*1<;<2,#8ie6->;:63:27785<>533",
"5;$6irphhq887aa8req646<491464424258e7;@<87>5,1<;;:37>:9&*86,5<*:;;&$5azvcpq84ykrpe64e4<e6;<6<$;,<;;-<=175;*7eae1;:36:;26782:33;1",
"1<%467dt787q13yu149744441-<6691<2yipe5*56778788<:11*;17#*pq<<,:;14**18layeyq55qur641446q022q;&1,58655682<;8ae8q2=*:-&;756e2-*&;1",
"4,%<,qh8,qi77:;54<48q46<<169696268yag5&151:88yp653=;1::#;a555<::24&&1571<eueq7;<;26<-1r6557q3$<137ki685,5;-py8621;&-;:16iq:::*:>",
"4<$418pe8uhya817118pq6q44qq944qq95786-&711752467351;%=71-aq<-<;,1<&&7q8;3uuyq;;7;,tt<,211>7i2#;3;;985681*$;757162515536ype4:**:;",
"<1&5276<ykppkyeu486u86re15257q9196785*%q2111>-5a841,-,h4$tw1<<6,;,*%<q5;yi7*%:71::2>$$:1:3<7;$-=<--3qyq72-5q148p7y8760paq71<-&--",
";:&26815ipppy87;36<38uu76626814775yie*#11;=-2<3672,4-1i-&<<:22<<14;&;4<30;$*7p9<1<,::y5;;271$#&$*-;1321q3:1yqqglp84668ag8;31-<;*",
"+++=15213-:$X$$. X+@&44-24&XX +>,,5<:X #%-=$-1--<;$O @$+$11*%**<,<@%51;;7:%;76477:;5673>;;:$O+&$&*&&-&*$..+&><1:=%@+#%13%%*#O+++",
"465,;%%<88::5:11-:<:&+ $,4187<;,<;;:<7q7ip715%$:*$%&*&##&,,---*%*1$+#;%X-;&$+#%&%$++X#-==;:yp68aaeeeeqiuaaa1331epe277,X+%&$%--*,",
"qyy66,-aMNbxcChuxnxat<%18ujmBmxNbeiaaMVVCBClh55gr6rxlhreie7tere9hmle241656t8X@#@#$$@X1i27eulxkMcklclhBASCvcutdxaai7ka:$8mkkffiqq",
"1**<6;;iyy886klaawe661-6717q77yyy88257q656yhu83aq78epy9661q6207ee4qe87ey68w8#%&%$%$XO:87p8yyy88ypug61ku7qau78phuy927;+%qiqh99q41",
"22226*%73>>34ezp145ep:%:31qa7;887w1161>74:;al1<824qqpy6242r721<<,1<466748ww3&--*%%#++:658ypzp:qglp5qieyiu67pu6yw<44:%$$:*#<2<2<<",
"::<14*#17:18iy11<<wte<+457i71;27771461164<:7y=%e646q70r722662224666946<<tw67$-*%%%&%+18758kku1ykhg8yayily5quw6677449;:$-,&*,,-,2",
"<<49<@@153788:&:-:826=%8qqyq<;-34,13;1;<57257*#5t13w4yaq208767q70997044779pp%%%%%$&%#*gh78pa853yziue29777q22688ew36a62;<47:;111;",
"7612<#%18u87<::11:526#<pe76e**=:1:;1q1-&;,,58*#&444517y97y75qpr6w62692447tsw$*,*&=--$&yy8e6q355ez758i811e6-477r451we6<:<2q81111<",
"i4;,4*,9y87y9753<*qy<#*yu73;*::;<;-4y1--*-,12$%,16t6146128r47t919242,3w0we67#%<<&*3:#;58ueq7388176:6i835<<16629q467168:1277:;58e",
"12,;q::u7-7ae6132<<;<;#7q31:125e4;7y4:;:;*,15%,86eai84<:7877q5<2<94,160ti16t$#=6:;:&+-7epea8yhuy1<7y777q9466427aqee86;%1e7155694",
"*-<3q--p11787<44<7<$81&e5,877eyi75ii<;**;&&28;50q7dp67568526073347664<6w57eq&%&<:1;%@*7875yydxde82ir1217t41167q7tyay8-$4w1<446;%",
"+&;24%$4-*%:**<1:y6,e;$825aaypa84r64<:4::;*20-277184:>1651*#*<*&,<7e334<:66<#%&-:5<%+-8e:1piay5>*-1<,,yi142672<,77374-@:5<-:11&+",
"1:<<2-%$&*$-:%&&$$O#$$O$*->:&$$#@&#$&,:&$##$$+%*$;;&%#%=;%$$#+X o@#%$@##@@%#o##%->*#++*-*-23:%OO## ++$:1*><;&#X#*8hp41&->-<161;<",
"irqqepp1$#2q449716445yy5778315a7<467276448:+-5837pgp76y6787uu3-8w21277066w649e79ey7iuyuy76e61yu&1iyyqe6<4tiyq66*:axbardthjhmmMns",
"11311wpt0$9trwr0flfqer6pkeseaxSxwpjhqeq0wse&rftfhpkp044tq4<7ka:usttreftrff32we9rpdhpajlvlyi4qyc6<qhpeitsahMa0iy71721424wznpmlpa8",
"37411,4rt&,499999i4144,if4611165<479te16666-74404,9r6,;76<1ex8#2tfr09e927w326422<96<141yk874658&;61<11-8aqyq70q2*;:*<4<6ie7qie7<",
"62;;<:<eq$-4<249iq66644eytte6<114e72e6<64w<&1-&<>21:21<<78tqy4$<7636erw6w42462424<,4425ryyyi766#;w*$46<6623377i3%1<;1<:;588q871>",
":;;::114-o-6<4726647qq2qptzky9957ht6644460<+,-:1<<1;<44eeq4ty>$:6<261777949499w67668wr7qyehgy42&*r44644,-:;,15i2@1464-;94666<331",
":-:1:<56:+$<6233786e765yhyhly00q4ide47916t1@<66:*;:1t61e6rayi&#$<32314ww04476ww0ew9r86qiyikae87*-67w4-;*-:121:71&166i8;4:93<333:",
"1--&&<343#$%34<<177r96eyurap8aiat7t841167d7%46777<;:444378dy2$*%%34<<6w4ww96160qewee77yki5885ai,<6t714<1678;<31*q61,54--=-::6353",
"4----144,+:<4446255767qg86r06iqup411464fhp6<4-7tq:,<;7w881155:;51344471,2460q90w7wteyiqy71q6588,<<76469hp8715<6-191<:1-*&*-:877e",
"e;--;;1q-%eww0767551:362757,2ueyw-<617ihq84-6:>621<:7ji92517a>*qe66w0621-;ww6661,9wwq711637q7e7:41<324wp24q6;&73&4<<<1,-;2877618",
"3:&;=&4e;&ew67063737y85<7e87ei776<46474516:=e8343>;<the61<54q;:yw63ew<ew14466881<63etq1188588e7%16,-;1=:761766u:;<;:671464ye6275",
"3<,55;:q=;tt6176278qe771:7233522e81661<584;&787>61485;15,;<:8;3jt64te2wte66e<-<1-;16pt338e18w85&-4-&;:;<31<7<5e-;4<4ei88766807q6",
"*&#$%#X# %<<<%--&$--*:-OX++OX+$*:<<::-&&;;#%;5<<<<64;@@=-&:1<*+&=&*;*@@%$&-%.  .  @#%;-*;&#%&&&O@$-%@$$#%%$X XX X-:1:-%#$$#&*--%",
";# &&##$;---&$&-%%@O+#@@$$#&-*##$$$#++&::;-47<8p6te<11;1412y76;*<;=32-#-ppi815w576673343;::686:*;->,:146755<1-;6&+&#+@%$$$@$#+$%",
"jraxy0ptxmZMahsdaq%$1558888yq87;*<,-&@8hllaua4yBlmVhfklhhw6ddaljjhknhw,7SDGFkmmdetu811wsgkdkpy856eeepdjxVSBjp6qjpui76qdpywedxdal",
"yhka8pp6whhqfmaw1%+-0eyke4pa2-7>%&&11@7yyaaw759afthh44eq8epe7aayehie4%%,tdyi4kme-:4--<ww;576&&:;<<:5titeyiy71;;68ytq646eqyayaCVb",
"7y82ext8e8346uu1#$+-14233;6i1-<6<::4>+485ey17e48pr4q4<69aldtquu74ww7-%$<6-#&<7w4<<<31et6:3;-%&=141445ee6367<,1*2:1776447ayalaup7",
"7apepetw314<<164-=+-<*--,6::1<:6w1<1:@188e8ey87dw776qqqigkhpiuy5<ew31<#*,%-,,<:671<546u4%55;-;*14761>111<<<5577y1142646etpzlkyay",
"eli847t44616614e14$$8::;*:431<;<q4:7-+1ey8yai5887ee7ye88qige8q720t1761=%461-><1e2:32i86%$977<**;561155:;<<<6718y158646647sxtydtq",
"776541:68t65118t<4;,721*;,2117;<8i71% >s77y88>5874789687qye25qay1636t1&18w73,<31;>yke6<#;211<5;;55><5--1**-5717w&4e76qw17uiuwery",
"76168,-16iq<<487q6&87<55<<:5:55y61w-$#6e5e738q52;12<5yg85777qigh6731w6&15443,,5>7iyz6;1<*:25;<:311>13;31*1;>7qy5$111wew31wew8yyi",
"w61w614w769q464<w7#;2:22,:3qpaq85>:41&173ee75q7626558uu327uq8apus73861&-1111<<46kp683,85*:286;*,,:328331;::>3533,16ww8q646613ie8",
"e7eu468622qaq6815>#-7111:677cme751:y8@;65e767yep77575671uy874ew8w6ee5:#;4<17617388855;86$5e5i8:>>215y71663121>:7134w6074uee83655",
"78qe667<24968848y7$:823y78e5677132;q1@4w7778ep872-;73116u7uy77127wtw84--41-67465%38<3>7y*1877532652>68788e871123:411<<4wauau7777",
"&5t71t7<*--<615uu8$&26>7y678*$;,:1:2:+:1:276:=#++X X#+$;;&y1+XXX-486:;@%,441<;:1=&>;:157&O#:213355<<*:5;1qe72;-$$14,:16we:>:%=:-",
"-=1<&11%   O#&;:*$ &;:1:6q<75&-;;<;1;++@*$$&#+O+#*%$$$$#@&-&%&&%%%-%+%&@o&-%&-&&;=+$&#>=,2&=:3>:2,#@+$&#:;:-%$%#+:4-:<;-$.+&$+X&",
"l7e76wq4::<;=-=&;346737plk7ei32757qlgaacSluiyy7$0aaagqhnVnaqipajutdtejliewq5138wah<6pihpcmapeiyayq8y%5aaaukcaaaqqwuta6uluadxdxdx",
"yee57e6<7nSAmxxdlmSCBmegu<;:-;<,477aagalllueie8$7ahue4tkait411884pw6ssq8tdnlsaee8i6ykvMpy6epiqq9yi7h1<pcacauCbi0e87eq1dlulmtuddu",
"weu816611pjwdtdVkazcma<71;-;*&--3e46447q8y81>1;@5ywy9tfq127q36p88w66<<5:5wftdpwpqi<7k776:<1pgq3:7g71&=7pklbpge13te7e49e1>55611tw",
"886ew666w5:-45eBaiigg5-8>***-::<38<,6e766665:1;#1w>564qr76rq64qe646e6666ww778eddqh15p=;3167775<:2ya5#1e8yughay77eq6744414:4754wu",
"u5<666563>;37ttq768ag8-133<--<:1653133<45:5e776#&64571<77ep6687ie668qq8trwwq7qpupa7:y167376-*35<57e7$=epyye8t6r0776e86144qdq6e8e",
"t1w66tt5-<>t6w615>7877:111:--:2:4<3<;;-12657275#+1711116qre7wirae1e7wue66r8eaduuld>%7831<<--<1517552%#2pu88q6qyq2776t46equeytepd",
"5786w6t1;6473111375>:5;,<<-:352::<1*;3::-3518e%+$%>4511167qyupey0qe0te8587788q05ea;&1q7<2111566;<38;#*&8u714777q476<6e9qe8qpuadp",
"64787454<4w37www85::81%;<3,-:15<18q::5142357ye*+;-<2784<::8t6ry7rqqqe4we6113387y88>;77e224q7385*5e8*#,;8peq48426q6126u94q1iyqji1",
"111tsw341444666661-,11-;<:11<<<:37ey37y56885<1:*6646a887<171,6y662-9ew7w<<14669ew7-,w216227w56<;1:qp*3epkky712<::316yqq716hi687<",
"<46wt43176,,1>14142--8<&22588751118y8qae97<;,:<1au7qhdpt<6q645eq66<we77114614685>7*<0<;<<,<3i741--ia;qkegg8q53<28q86yaa6;98e6176",
"66w13<111>&$--<4119<1e-%;121ypww76777qyeq7111,->hu87yp87e864444<466141478<62<351>6:<2-*$--=<er1e64j3;aiq677925paee8qety575682161",
"13511:<-@%%$&-$%<-#+#$@+X&**25:1>*&$-=%:<:*&$$+=56:17;:>;:;-,-  +#@+#%-,<,:;-&-:3<#$-<-%&<-=48<1--4*>p16:22,;1y6<q8;#@-;#@%-,7:;",
"wute96q2<:rjq4qet1485784*<2>-,1<6548;;&$%;3,*7ama7s:@13whe8t467q6wht6ey66tre3,$@*&#&*-;&-,---%$   X#&1*--*,&$*%*:*+>q816at21446q",
"tt7teapwamnllahldwpiupei;7aahxmNklmmyee1;3jzyypbdpb3=66pmliiphgflnhatdp8wttjlt24tepeww77wtwr97pjeyry5ea6qepiiuely2+5hyraVnfiheq9",
"8577qtw44pw<6eyq6qt7677y$1t26pd8>kcq4:5q7,<qdpau4we=;2417u51q657871168<1<4<6ppt6w677eeeptr6rhclhjclaq7eaiq7ekpig1-$=56qpjj8qe444",
"27uewpw33,<4<6e46ew46469$$q6466:3hpaq1476269axaq87e;$41;7u1<2751<4w1141<,<2-6ae,4377646744eewr1<88qyay2yq447kga6%+$-1767kMtifq96",
"28iyq7e56298442691,4946e#+46ypt8uap7;we5,2898pyqe55&#556y2<<;2:;:367326:<-<1<9<,21446et3<tpq7696qyrjaq6>232<4aa5-$@=486yv5qyqy62",
"63ida7ryi6it49t7<464eawq&#<6ehaeaae;5pype<302py7<15%@18py<51:-;;-:6665534,161<&,146<epw44eq4qpyyzxiqq8qy8<1158e9<;$+175rrqgi7799",
"6668a0pdy66747u7<4q48tie&X,9idu87ye7yapl817eqhe>;4e*-<6t806:&;1;*--<65:1<-:116:-664497434<68taq9yda667qye148qq7q1<&@%15815aaweae",
"8711uglkiii0ede164<44477$#377pe18yq8y87e663eakp7e8811888761**;-=*:-:7541;-;14a6%441744<1446w7yq53yyqy337ea78qyyq81%;&&8ye7766yu7",
"1226qahvapppphe3w77744,6-X67,*,27e82><27gp>3qiy56um4&eiw62:;;-&-<<<2737861755a4=77674,1441<2212287725;qgeppq8pq4w8;::<iyfpw3141<",
":,775ya0qpdp714w149w7410*X40<,177i8*:ey27yq520y5>qh;@6rq464:<,44<,2627q3:225<w11710eq66q72<42,27euy8qpxhqqhlphi411*114hhijt45-->",
"2212<ip168ea8:>411368136%#,22-2<;=%>i5:11>$&1738864#*611ei6164q42425<35-*;;<78&;6<146qe8e66652533qzxyyy7yyqypga7e;#8647ikkw0w133",
"23222yi666t6iw176167<166#$1;,,,-##<e12e71358q3<7yw& -56wpdp76099q842135;;71:77=>741444te445<162312ii7yqq0777yyqad1#ee77qghw44644",
";5*X@%*X@;1>yy3613163-:<+O;*%$*-$$-&$8p2&*;&&->;%$   *1333<=$$&&-13<;2:#*1;%*-#-7516535:@#$#X#&$%-5>7g7$+$#,5<yi6;#61567ee41::1*",
"<-$%%-%*;%$-:131;1*$6daaqq07w8uu7qpae7#:8yiiaayy65<12-5q7>582*#+ O##@&+++X ++@$##$#$**++XXX@#X@+O#$%$@;aaaiykzxxde1q2481&#*::-;,",
"7:qe574pjapqqzzpy81+8jcbdbBSVukbzphzka7axcSMcccCFChajjllpqahripq-@2q777pgqhyucke7yeqyu8ykllclyqai78aq 8FGFHBMxjBxh5144at *asirqi",
"25a7:686ypajBCa6qyy+>y772qyykaala88i687qiye53>8agy772731<1<<19i0q&6aphhehljakhp26ayyughhkbmCBaraa8qyq%5xzzBy7wyr77<;:<7<#7q9t967",
"7dae4q64ahkkmc6;7le ;q:;:12>qBly8327i8;5y85357723<<87<-;11311,20e*<06eqiuau0qp71qqq75472556iakpau5691&5i7:211ee>;;<7744;%qrw4691",
"4:;ee9948u888k8388- *8<->4ypq35>5578i8*18137>5561-<641,:<1<,-;1y5#;5:1qphjuiepe8e785<52<858ap8y78qq75$-5;=>5567w2*<6446:@4t62456",
"644q46r4=375ehca55=+*311eeug7&:25856h7+;e:58<*53;;;-<2::,-11-,24,+-711e42yqqiadt78737757upkza585yu78u@$q8:;13>76<,;<754#@18<,444",
"6449,,<q3137yaeqe5-%%57518q01:1378528>$788675;;*1-*:;15:-*,,;,<2,+@<21,2yqryay6qqqyqq8yq8avBa5ehhyqiq+;ie75351115<4q781@$64,*,24",
"2,<,,<,<:7ygkq33621$-<yk64ya93>6y373;*%9ye<11**<:*=5-<q2;:*&=1:41@#$<4,,467hh64912yqq6gx77aMh55iaqea;X<51e5<4145u7yu<76*%6621683",
"4<11<&-#&gby7538388O:1ya7yqg88576;78q-+:e7:1<;;---13:58<;1:-;631,+&$,4446e76661662aa02iaeyea577ea738y$&144:4516id8yw;4y;$td88we4",
"614<&,61-5p71<562ey$;663ep8767673:*;q5#-21:;;;,<126>,8q<121*=454,@,-<7ie8756,:4<96aa257eakq>;epep7>8y+-624,1<,6ip764;4p<$pi43674",
"12,%-7we;&;7q2578qq$-q27757117e81;;<77*25;;,1:2887yu74613:=*&;<3,%221eysu46y8166<5yq;>6waq0178ep827y1#*76,,<465:*<151;8:&956>&,,",
"<2*<7;6i6;167>;<76-#:5;>**5-8pq5<6q7q<#15<<4q798auhp85151;;<;->3-*we6<6p58ipt4<627q2254wq5p78a871<qq,#;461<1434;&:7144<:%111--<<",
"@+&w,%--41,<$ X+*#$$&:;:&&72<161;<%-<=#*:<256;**--;>>1151$$*;-%*@*we7-46<6444-4<$$&**#$1<6kq587:-154,O&-;4;<1:*$@$*=&;1:#&--4t-+",
";%*;,-&&%;&&&%#XO=7*&=$&%$::%<1&$#O+ $*$$$$=*$-**;;*;&+$$+  ++++O$*--&%%@@@%&-,,-*$+#&$$%$15:<1-,1$##$$$==$&;&#+#$@&$$;&##@X$$$:",
"tjfristeiitiiiq;*hae8ap827i57ph16a005epiaayihppeaxljp2+;dmdlhap76q999rq<+@qrqw6eay7q77886qy63pciqi;+1ruprua774yuaNxlaqe8jhts7-pd",
"0e707ttrhxqqer96&eeq9fsihhh9qqi9697peetgthntqe64667764%7xmlcSmmbtttresrt<;t90r0w<:q6<<4yiiq0iaxg644>76367ely0ipqqidq9667galFVqyy",
"t7<<<,9tpe4<604-%474qq4akw,2644q646674144<we86it724464+4a57qyq5pMjw44066*,e994441ii9686qaqyygy266f4@11;<2,7y8683<;;;:<<6q48xV0<y",
"7;-<41466<<1499-%,4<166hnkgp06447q6184,<3677q6rp646144+-a132763qa6<116e0$&003424e6<6r94<ykky0r1-6p-+61-,52<;32385<,;;;::577yx7;5",
"<,>460<-<;<<498-#,616t4<taMze6440pq5q640w7062quq166777%2i08q8yy1-;,<2675%-04<96641<6er9717aa00q268$+14,1,;:-;,37<<:<2<1766qey<,1",
"<343<1-:;::6218;+%366618ppdxt416euqyq2q66were66re64eht$;7iiaw76=--,<4416#<w<-<744w4t554p6<ep88qqe1%*,462,;;,&::;-,<1e11t87yyy:;;",
">112<13>:1:1<<6&#$-w4>1tu8rt7iii88e8q96qree6e84ee444st$&7pq7y74>>-1<<154+,74>1744364:15r45yqekeyp<--642175;%&;*;<-,<41;:;277a2=>",
"6666474<41<<54<##-=676wi7,64qpe623iy976zkihu4<qtt4<36e$-5475ayre43>-;66-o-thw56676671>1;&9h86p8q6e<%77<wq2::&%*27<;1:1-&&*11p3<i",
"w2276w6<<1365<,%$<167ww44<11<w46r29q60ehrtse5<6wq6366e$;2<5ey7qr7<;;2<<1+:htw44746w8;:<:=<p2<8776q<@<760<:21:;<4411144;---37y1;e",
"03<44<36151:*;6;-61ehaq6884158665277:56388816758q664e7#46,6014<146<4-%3p&;656-;1771->w84;;;18y6700<%14,::1:48y777<5132***&367-27",
"w::43&6p7<18>5e-;t84tqq67e55e84<2679242581<757y7634376#40--=::<7e717w-es$*46>-::<7<-w13771=385;<q1*,4<<46418qip8q6634:;:-&->5*5r",
">&&<5-<<667815q=6pe1<674wy7yq77721641;;5yep71774536764%-3-%&-;->333e6-03$;41563*$&-63::1u5<3=@@$;&<-<11qapw777qqr8q71<-;1:*1<&;1",
"&&%34$@&<&$+.+++;;:<=:;&;&%>132<+@%&$@@%1177:;:6>31;<-+@&-*;-;*=;=%&#o+#$+#@@+     @@$@ +%++O... +- +&;:<*$++#X$#;:%*%+X+# ++ #%",
"3-%=-<5<:34;*:<<*-11;-14<-<51<; &7e5256=-2&#$@%*%$@+#+#%@o+@@++X+X+@o++@$%;&o&etw0w71<3w737hy5,+&--%#@####%**##$$$#X +$#++$*-:;<",
"tsw1sll48jp67dduetighvVVmakmq0a;487888y55p<2y32hjq9e66qpwwpieuu8ejuuejk6tlhi7hmlhhflhnnmlgMSzig8fhetlmaamlxpa7yBmaut6thhajxballh",
"7t5-pa5::;&*;231166q7py8q5<3::118711782--816uaqltqphrq96exhsjdmmdlhamBhpt86661e674561hmja77p857qpwwrhpptpai3278u8eyeaa8amMbdupp7",
"7t6%86<-&&$*;;1q88w8qyy414<:*>;-e861:5:<4e56qualt6e4<644tkfideyw5777yttt61664%7w1111;7ms6566qq::ueeeetidq0yi7eep851424<1ylkaahp6",
"7p5%11;%&;*;:>7i1-4ey2>;,,77;3;*yq33>6337767p>eueaiqe785yhlyw87,5u4778e418466%4u;-5ya65<,1788y:=u817ehauai8ap78y66611451wkcie86w",
"6q<#55>11<;;*>86-<er2&;*-,273p5$3yq25:577y62a15a<<eeq8u8qghu7weyey66we547e644&16-5aae;**;,565p1+7u37a16a8yyep78y648w8yawpdxi55eu",
"ey:&7<12;,**;;5:12<5-*;;,,,3383%%8e953885y5*8q734466eay7qadwqahkee1td41twt786&:6657y1*:<;;2826:O*73377paqae7yyyy1467tpdeexdwehha",
"y8;;711:;,;;;<1;1,&-;*&**128ku&+=;;ya576:<5$%63:<648eee423aq7kjup1:ep665566e6-15863721121::8y7&##;5773866eq355<79eqtyuy<1idw4yye",
"e53=:22:*;<21<2<11>:<*;>%388ap&%::-yl5:1178=%56y6466258167eawt76eweu51444<6w6,5<68p8e8551118e7%&%:68h8:338y7254puwrq6676e66w4771",
"878%;25:&**:5<<57e712:<313u747>$36,18y635671278iq111:=;<8riae5488ua4;481646664185ig76758667*-25=>377ee85561357ee9416646tw18u77ww",
"8y8%-85;1;;><,;37e7>13:27752633<13-<5yh31:2773770q44114772pu4:66wdy1585446354-6q775:;:5ie51;1y31q62q9ul658y861<2q9-124e811y6556w",
"775-;672421<1<:35e87w33>7e;373<:<3*::8a3q15yq1374476761717ie6876e8w7<661<<41<-11;*&1;;317q69ya;:u6,77eq7hiq752654464446643uw5655",
">35$&*:355e888ey9qyyyqe7qq113:%$<:;73333y11eu611<1558,4u4%$&;*$&-:e6:54;,->,:#=:-<,21&::41*%;-%2q717851qay88p7*%*>:;-*<eye766752",
"*-$ +++%->76352:%#&**-13:*:%#+X#;--:=*=566>;2:%&%$@+..%-$@@ X++##%$%;*#10wippu716qqep75*X      @@#$%%+ O ++$-%%*11we:%>1<;&##%$*",
"837e<;*$$@+#;;-:;:<41:;<-;<:;*2qpp-X;q8yupju8887khps96611euyyehdpi8w6;@7lnZVMVhjeahqe7ii$;<2>;*&-1&**:33365=$$;=78871442; *87588",
"lgpblayy5:@-78yaehzBleua777q7872iMg33gaadadueui7mBhsfteqqquie8adht8d8&$5t65w6amh1ee71;ie1uahakeqgcahgbMMblBlk3*-571661;<;#yhgpkj",
"6epie77yq5&:257887agp465<1<::75:2ug81e8aa8qat18ar87;q6146tt46e6eue41$@@11$-1668y88qpq2q2;4><18y7qy87787eq56kl6<<114577<<&#876767",
"11y77638e<@<8758e5168331<,;:1171:6a5387ypyau11yi67e6696eqew68w67814-%%+;>&-16847y757746,-<-45587536611168873qe5;;4517q<&;$:y<1<6",
"441>1<3883O*8763>1:::<,,<;:1553;<6e%3pyeque36ee66r79qtt4768uuuee41445;+;55>:1551513>6w1@,<1<161::16:3777155<4t4<<44;15:<2$*y5678",
"6<>11>2<5:$:78251;;&;;;;-<3>;32-58e->aapy8757647q7448e92<<6q6pt5456871;2515114:7ew71775*1571-::*::1:167744>175166111<:4q5=:77py4"
};
